<svg xmlns="http://www.w3.org/2000/svg" xmlns:xlink="http://www.w3.org/1999/xlink" version="1.1" x="0px" y="0px" viewBox="0 0 100 125" style="enable-background:new 0 0 100 100;" xml:space="preserve"><g><g><path d="M69.206,58.04c-1.5-0.652-3.667-3.859-5.154-7.627c-1.078-2.73-4.286-10.794-13.044-11.436    c-0.197-0.041-0.401-0.063-0.61-0.063c-0.086,0-0.163,0.013-0.249,0.014c-0.085-0.001-0.162-0.014-0.249-0.014    c-0.209,0-0.413,0.022-0.61,0.063c-8.757,0.642-11.966,8.706-13.044,11.436c-1.487,3.768-3.655,6.975-5.154,7.627    c-7.237,3.148-11.578,10.77-10.557,18.534c0.94,7.15,6.129,12.283,13.541,13.395c0.864,0.13,1.735,0.194,2.606,0.194    c2.375,0,4.75-0.479,6.985-1.418c0.973-0.408,1.842-0.878,2.682-1.331c1.361-0.734,2.554-1.373,3.799-1.532    c1.245,0.159,2.438,0.798,3.799,1.532c0.84,0.453,1.709,0.923,2.682,1.331c2.235,0.939,4.61,1.418,6.984,1.418    c0.871,0,1.742-0.064,2.606-0.194c7.412-1.111,12.601-6.244,13.542-13.395C80.784,68.81,76.442,61.188,69.206,58.04z     M73.814,75.792c-0.281,2.138-1.671,7.222-8.483,8.243c-2.1,0.316-4.365,0.023-6.376-0.821c-0.704-0.296-1.409-0.677-2.157-1.08    c-1.615-0.872-3.418-1.839-5.647-2.172c-0.282-0.075-0.575-0.123-0.881-0.113c-0.042,0.002-0.08,0.009-0.121,0.011    c-0.041-0.002-0.08-0.009-0.121-0.011c-0.316-0.011-0.617,0.039-0.907,0.117c-2.216,0.336-4.012,1.299-5.621,2.167    c-0.748,0.403-1.453,0.784-2.157,1.08c-2.011,0.845-4.275,1.138-6.376,0.821c-6.812-1.021-8.201-6.105-8.482-8.243    c-0.551-4.193,1.405-9.815,7.002-12.25c4.389-1.909,7.295-8.276,8.341-10.926c2.113-5.353,4.539-7.598,8.321-7.693    c3.782,0.095,6.208,2.34,8.321,7.693c1.045,2.648,3.951,9.017,8.341,10.926C72.409,65.977,74.365,71.599,73.814,75.792z"/><path d="M27.05,55.95c1.664-2.937,2.263-6.545,1.687-10.16c-1.112-6.979-6.437-12.242-12.384-12.242    c-0.536,0-1.077,0.043-1.608,0.127C8.26,34.71,3.984,41.827,5.213,49.541c1.112,6.979,6.436,12.241,12.383,12.241    c0.537,0,1.078-0.043,1.608-0.127C22.475,61.134,25.261,59.107,27.05,55.95z M21.83,52.992c-0.871,1.537-2.139,2.51-3.57,2.737    c-3.171,0.515-6.432-2.804-7.122-7.133c-0.697-4.372,1.388-8.491,4.552-8.996c0.219-0.035,0.442-0.053,0.663-0.053    c2.979,0,5.817,3.157,6.459,7.187C23.175,49.012,22.826,51.234,21.83,52.992z"/><path d="M35.543,38.172c6.567,0,11.911-6.354,11.911-14.166S42.111,9.839,35.543,9.839c-6.568,0-11.911,6.355-11.911,14.167    S28.976,38.172,35.543,38.172z M35.543,15.839c3.204,0,5.911,3.74,5.911,8.167s-2.707,8.166-5.911,8.166s-5.911-3.739-5.911-8.166    S32.339,15.839,35.543,15.839z"/><path d="M86.272,33.895c-0.784-0.189-1.591-0.285-2.399-0.285c-5.67,0-10.928,4.735-12.503,11.261    c-1.833,7.593,1.869,15.024,8.253,16.566c0.784,0.189,1.591,0.285,2.398,0.285c0,0,0,0,0.001,0    c5.669,0,10.927-4.735,12.503-11.261C96.359,42.868,92.657,35.437,86.272,33.895z M88.694,49.053    c-0.918,3.803-3.787,6.67-6.671,6.669c-0.334,0-0.668-0.039-0.991-0.117c-3.114-0.752-4.868-5.023-3.829-9.326    c0.918-3.802,3.786-6.669,6.671-6.669c0.334,0,0.668,0.039,0.991,0.117C87.979,40.479,89.732,44.75,88.694,49.053z"/><path d="M64.38,38.172c6.567,0,11.911-6.354,11.911-14.166S70.947,9.839,64.38,9.839s-11.911,6.355-11.911,14.167    S57.813,38.172,64.38,38.172z M64.38,15.839c3.204,0,5.911,3.74,5.911,8.167s-2.707,8.166-5.911,8.166s-5.911-3.739-5.911-8.166    S61.176,15.839,64.38,15.839z"/></g></g><text x="0" y="115" fill="#000000" font-size="5px" font-weight="bold" font-family="'Helvetica Neue', Helvetica, Arial-Unicode, Arial, Sans-serif">Created by Maxim Kulikov</text><text x="0" y="120" fill="#000000" font-size="5px" font-weight="bold" font-family="'Helvetica Neue', Helvetica, Arial-Unicode, Arial, Sans-serif">from the Noun Project</text></svg>